<svg width="426" height="547" viewBox="0 0 426 547" fill="none" xmlns="http://www.w3.org/2000/svg">
<ellipse cx="212.649" cy="531.623" rx="182.271" ry="15.1892" fill="#DEB41E" fill-opacity="0.39"/>
<path fill-rule="evenodd" clip-rule="evenodd" d="M62.2834 62.2835C-20.7612 145.328 -20.7611 279.97 62.2835 363.015L186.187 486.919L186.112 438.771L175.458 429.103C156.328 411.448 142.582 391.796 139.26 377.083C138.458 373.3 138 347.238 138 297.741C138 227.541 138.115 223.863 140.176 220.71C141.322 219.029 144.071 216.717 146.133 215.771C151.288 213.354 161.025 213.88 165.263 216.822C166.179 217.44 166.954 217.934 167.61 218.554C171.303 222.044 171.22 229.527 171.22 285.656V347.448H183.019H194.932L195.619 324.539C196.078 312.033 196.421 284.184 196.421 262.851C196.421 226.7 196.536 223.758 198.598 220.71C204.44 211.988 220.821 211.883 227.808 220.605C230.087 223.427 230.099 225.105 230.55 284.438L230.558 285.445L231.016 347.448H242.929H254.843V286.391C254.843 231.016 254.692 222.125 258.988 218.49C259.983 217.647 261.217 217.087 262.747 216.297C271.796 211.568 282.793 214.405 287.261 222.392C289.094 225.86 289.208 231.009 288.864 300.683C288.635 369.727 288.406 375.717 286.459 381.077C280.96 396.21 270.422 410.712 253.01 427.211L241.096 438.561L241.023 485.006L363.015 363.015C446.059 279.97 446.059 145.328 363.015 62.2835C279.97 -20.7612 145.328 -20.7612 62.2834 62.2835Z" fill="#DEB41E"/>
</svg>
